<svg width="93" height="30" viewBox="0 0 93 30" fill="none" xmlns="http://www.w3.org/2000/svg">
<path d="M47 0L51.635 9.87696L62 11.4545L54.5 19.1434L56.27 30L47 24.8746L37.73 30L39.5 19.1434L32 11.4545L42.365 9.87696L47 0Z" fill="#B50014"/>
<path d="M10.5 5L13.59 11.261L20.5 12.261L15.5 17.135L16.68 24.017L10.5 20.768L4.32001 24.017L5.5 17.135L0.5 12.261L7.41 11.261L10.5 5Z" fill="#B50014"/>
<path d="M82.5 5L85.59 11.261L92.5 12.261L87.5 17.135L88.68 24.017L82.5 20.768L76.32 24.017L77.5 17.135L72.5 12.261L79.41 11.261L82.5 5Z" fill="#B50014"/>
</svg>
